<?xml version="1.0" encoding="utf-8"?>
<!-- Generator: Adobe Illustrator 28.2.0, SVG Export Plug-In . SVG Version: 6.00 Build 0)  -->
<svg version="1.1" id="Calque_1" xmlns="http://www.w3.org/2000/svg" xmlns:xlink="http://www.w3.org/1999/xlink" x="0px" y="0px"
	 viewBox="0 0 1978.9 1103.6" style="enable-background:new 0 0 1978.9 1103.6;" xml:space="preserve">
<style type="text/css">
	.st0{fill:none;stroke:#000000;stroke-miterlimit:10;}
</style>
<g>
	<polygon class="st0" points="69.3,60 69.3,20 34.6,0 0,20 0,60 34.6,80 	"/>
	<polygon class="st0" points="138.6,60 138.6,20 103.9,0 69.3,20 69.3,60 103.9,80 	"/>
	<polygon class="st0" points="207.8,60 207.8,20 173.2,0 138.6,20 138.6,60 173.2,80 	"/>
	<polygon class="st0" points="277.1,60 277.1,20 242.5,0 207.8,20 207.8,60 242.5,80 	"/>
	<polygon class="st0" points="346.4,60 346.4,20 311.8,0 277.1,20 277.1,60 311.8,80 	"/>
	<polygon class="st0" points="415.7,60 415.7,20 381.1,0 346.4,20 346.4,60 381.1,80 	"/>
	<polygon class="st0" points="485,60 485,20 450.3,0 415.7,20 415.7,60 450.3,80 	"/>
	<polygon class="st0" points="554.3,60 554.3,20 519.6,0 485,20 485,60 519.6,80 	"/>
	<polygon class="st0" points="623.5,60 623.5,20 588.9,0 554.3,20 554.3,60 588.9,80 	"/>
	<polygon class="st0" points="692.8,60 692.8,20 658.2,0 623.5,20 623.5,60 658.2,80 	"/>
	<polygon class="st0" points="762.1,60 762.1,20 727.5,0 692.8,20 692.8,60 727.5,80 	"/>
	<polygon class="st0" points="831.4,60 831.4,20 796.7,0 762.1,20 762.1,60 796.7,80 	"/>
	<polygon class="st0" points="900.7,60 900.7,20 866,0 831.4,20 831.4,60 866,80 	"/>
	<polygon class="st0" points="969.9,60 969.9,20 935.3,0 900.7,20 900.7,60 935.3,80 	"/>
	<polygon class="st0" points="1039.2,60 1039.2,20 1004.6,0 969.9,20 969.9,60 1004.6,80 	"/>
	<polygon class="st0" points="1108.5,60 1108.5,20 1073.9,0 1039.2,20 1039.2,60 1073.9,80 	"/>
	<polygon class="st0" points="1177.8,60 1177.8,20 1143.2,0 1108.5,20 1108.5,60 1143.2,80 	"/>
	<polygon class="st0" points="1247.1,60 1247.1,20 1212.4,0 1177.8,20 1177.8,60 1212.4,80 	"/>
	<polygon class="st0" points="1316.4,60 1316.4,20 1281.7,0 1247.1,20 1247.1,60 1281.7,80 	"/>
	<polygon class="st0" points="1385.6,60 1385.6,20 1351,0 1316.4,20 1316.4,60 1351,80 	"/>
	<polygon class="st0" points="1454.9,60 1454.9,20 1420.3,0 1385.6,20 1385.6,60 1420.3,80 	"/>
	<polygon class="st0" points="1524.2,60 1524.2,20 1489.6,0 1454.9,20 1454.9,60 1489.6,80 	"/>
	<polygon class="st0" points="1593.5,60 1593.5,20 1558.8,0 1524.2,20 1524.2,60 1558.8,80 	"/>
	<polygon class="st0" points="1662.8,60 1662.8,20 1628.1,0 1593.5,20 1593.5,60 1628.1,80 	"/>
	<polygon class="st0" points="1732.1,60 1732.1,20 1697.4,0 1662.8,20 1662.8,60 1697.4,80 	"/>
	<polygon class="st0" points="1801.3,60 1801.3,20 1766.7,0 1732.1,20 1732.1,60 1766.7,80 	"/>
	<polygon class="st0" points="1870.6,60 1870.6,20 1836,0 1801.3,20 1801.3,60 1836,80 	"/>
	<polygon class="st0" points="1939.9,60 1939.9,20 1905.3,0 1870.6,20 1870.6,60 1905.3,80 	"/>
</g>
<g>
	<polygon class="st0" points="103.9,120.3 103.9,80.3 69.3,60.3 34.6,80.3 34.6,120.3 69.3,140.3 	"/>
	<polygon class="st0" points="173.2,120.3 173.2,80.3 138.6,60.3 103.9,80.3 103.9,120.3 138.6,140.3 	"/>
	<polygon class="st0" points="242.5,120.3 242.5,80.3 207.8,60.3 173.2,80.3 173.2,120.3 207.8,140.3 	"/>
	<polygon class="st0" points="311.8,120.3 311.8,80.3 277.1,60.3 242.5,80.3 242.5,120.3 277.1,140.3 	"/>
	<polygon class="st0" points="381.1,120.3 381.1,80.3 346.4,60.3 311.8,80.3 311.8,120.3 346.4,140.3 	"/>
	<polygon class="st0" points="450.3,120.3 450.3,80.3 415.7,60.3 381.1,80.3 381.1,120.3 415.7,140.3 	"/>
	<polygon class="st0" points="519.6,120.3 519.6,80.3 485,60.3 450.3,80.3 450.3,120.3 485,140.3 	"/>
	<polygon class="st0" points="588.9,120.3 588.9,80.3 554.3,60.3 519.6,80.3 519.6,120.3 554.3,140.3 	"/>
	<polygon class="st0" points="658.2,120.3 658.2,80.3 623.5,60.3 588.9,80.3 588.9,120.3 623.5,140.3 	"/>
	<polygon class="st0" points="727.5,120.3 727.5,80.3 692.8,60.3 658.2,80.3 658.2,120.3 692.8,140.3 	"/>
	<polygon class="st0" points="796.7,120.3 796.7,80.3 762.1,60.3 727.5,80.3 727.5,120.3 762.1,140.3 	"/>
	<polygon class="st0" points="866,120.3 866,80.3 831.4,60.3 796.7,80.3 796.7,120.3 831.4,140.3 	"/>
	<polygon class="st0" points="935.3,120.3 935.3,80.3 900.7,60.3 866,80.3 866,120.3 900.7,140.3 	"/>
	<polygon class="st0" points="1004.6,120.3 1004.6,80.3 969.9,60.3 935.3,80.3 935.3,120.3 969.9,140.3 	"/>
	<polygon class="st0" points="1073.9,120.3 1073.9,80.3 1039.2,60.3 1004.6,80.3 1004.6,120.3 1039.2,140.3 	"/>
	<polygon class="st0" points="1143.2,120.3 1143.2,80.3 1108.5,60.3 1073.9,80.3 1073.9,120.3 1108.5,140.3 	"/>
	<polygon class="st0" points="1212.4,120.3 1212.4,80.3 1177.8,60.3 1143.2,80.3 1143.2,120.3 1177.8,140.3 	"/>
	<polygon class="st0" points="1281.7,120.3 1281.7,80.3 1247.1,60.3 1212.4,80.3 1212.4,120.3 1247.1,140.3 	"/>
	<polygon class="st0" points="1351,120.3 1351,80.3 1316.4,60.3 1281.7,80.3 1281.7,120.3 1316.4,140.3 	"/>
	<polygon class="st0" points="1420.3,120.3 1420.3,80.3 1385.6,60.3 1351,80.3 1351,120.3 1385.6,140.3 	"/>
	<polygon class="st0" points="1489.6,120.3 1489.6,80.3 1454.9,60.3 1420.3,80.3 1420.3,120.3 1454.9,140.3 	"/>
	<polygon class="st0" points="1558.8,120.3 1558.8,80.3 1524.2,60.3 1489.6,80.3 1489.6,120.3 1524.2,140.3 	"/>
	<polygon class="st0" points="1628.1,120.3 1628.1,80.3 1593.5,60.3 1558.8,80.3 1558.8,120.3 1593.5,140.3 	"/>
	<polygon class="st0" points="1697.4,120.3 1697.4,80.3 1662.8,60.3 1628.1,80.3 1628.1,120.3 1662.8,140.3 	"/>
	<polygon class="st0" points="1766.7,120.3 1766.7,80.3 1732.1,60.3 1697.4,80.3 1697.4,120.3 1732.1,140.3 	"/>
	<polygon class="st0" points="1836,120.3 1836,80.3 1801.3,60.3 1766.7,80.3 1766.7,120.3 1801.3,140.3 	"/>
	<polygon class="st0" points="1905.3,120.3 1905.3,80.3 1870.6,60.3 1836,80.3 1836,120.3 1870.6,140.3 	"/>
	<polygon class="st0" points="1974.5,120.3 1974.5,80.3 1939.9,60.3 1905.3,80.3 1905.3,120.3 1939.9,140.3 	"/>
</g>
<g>
	<polygon class="st0" points="69.3,180.3 69.3,140.3 34.6,120.3 0,140.3 0,180.3 34.6,200.3 	"/>
	<polygon class="st0" points="138.6,180.3 138.6,140.3 103.9,120.3 69.3,140.3 69.3,180.3 103.9,200.3 	"/>
	<polygon class="st0" points="207.8,180.3 207.8,140.3 173.2,120.3 138.6,140.3 138.6,180.3 173.2,200.3 	"/>
	<polygon class="st0" points="277.1,180.3 277.1,140.3 242.5,120.3 207.8,140.3 207.8,180.3 242.5,200.3 	"/>
	<polygon class="st0" points="346.4,180.3 346.4,140.3 311.8,120.3 277.1,140.3 277.1,180.3 311.8,200.3 	"/>
	<polygon class="st0" points="415.7,180.3 415.7,140.3 381.1,120.3 346.4,140.3 346.4,180.3 381.1,200.3 	"/>
	<polygon class="st0" points="485,180.3 485,140.3 450.3,120.3 415.7,140.3 415.7,180.3 450.3,200.3 	"/>
	<polygon class="st0" points="554.3,180.3 554.3,140.3 519.6,120.3 485,140.3 485,180.3 519.6,200.3 	"/>
	<polygon class="st0" points="623.5,180.3 623.5,140.3 588.9,120.3 554.3,140.3 554.3,180.3 588.9,200.3 	"/>
	<polygon class="st0" points="692.8,180.3 692.8,140.3 658.2,120.3 623.5,140.3 623.5,180.3 658.2,200.3 	"/>
	<polygon class="st0" points="762.1,180.3 762.1,140.3 727.5,120.3 692.8,140.3 692.8,180.3 727.5,200.3 	"/>
	<polygon class="st0" points="831.4,180.3 831.4,140.3 796.7,120.3 762.1,140.3 762.1,180.3 796.7,200.3 	"/>
	<polygon class="st0" points="900.7,180.3 900.7,140.3 866,120.3 831.4,140.3 831.4,180.3 866,200.3 	"/>
	<polygon class="st0" points="969.9,180.3 969.9,140.3 935.3,120.3 900.7,140.3 900.7,180.3 935.3,200.3 	"/>
	<polygon class="st0" points="1039.2,180.3 1039.2,140.3 1004.6,120.3 969.9,140.3 969.9,180.3 1004.6,200.3 	"/>
	<polygon class="st0" points="1108.5,180.3 1108.5,140.3 1073.9,120.3 1039.2,140.3 1039.2,180.3 1073.9,200.3 	"/>
	<polygon class="st0" points="1177.8,180.3 1177.8,140.3 1143.2,120.3 1108.5,140.3 1108.5,180.3 1143.2,200.3 	"/>
	<polygon class="st0" points="1247.1,180.3 1247.1,140.3 1212.4,120.3 1177.8,140.3 1177.8,180.3 1212.4,200.3 	"/>
	<polygon class="st0" points="1316.4,180.3 1316.4,140.3 1281.7,120.3 1247.1,140.3 1247.1,180.3 1281.7,200.3 	"/>
	<polygon class="st0" points="1385.6,180.3 1385.6,140.3 1351,120.3 1316.4,140.3 1316.4,180.3 1351,200.3 	"/>
	<polygon class="st0" points="1454.9,180.3 1454.9,140.3 1420.3,120.3 1385.6,140.3 1385.6,180.3 1420.3,200.3 	"/>
	<polygon class="st0" points="1524.2,180.3 1524.2,140.3 1489.6,120.3 1454.9,140.3 1454.9,180.3 1489.6,200.3 	"/>
	<polygon class="st0" points="1593.5,180.3 1593.5,140.3 1558.8,120.3 1524.2,140.3 1524.2,180.3 1558.8,200.3 	"/>
	<polygon class="st0" points="1662.8,180.3 1662.8,140.3 1628.1,120.3 1593.5,140.3 1593.5,180.3 1628.1,200.3 	"/>
	<polygon class="st0" points="1732.1,180.3 1732.1,140.3 1697.4,120.3 1662.8,140.3 1662.8,180.3 1697.4,200.3 	"/>
	<polygon class="st0" points="1801.3,180.3 1801.3,140.3 1766.7,120.3 1732.1,140.3 1732.1,180.3 1766.7,200.3 	"/>
	<polygon class="st0" points="1870.6,180.3 1870.6,140.3 1836,120.3 1801.3,140.3 1801.3,180.3 1836,200.3 	"/>
	<polygon class="st0" points="1939.9,180.3 1939.9,140.3 1905.3,120.3 1870.6,140.3 1870.6,180.3 1905.3,200.3 	"/>
</g>
<g>
	<polygon class="st0" points="103.9,240.6 103.9,200.6 69.3,180.6 34.6,200.6 34.6,240.6 69.3,260.6 	"/>
	<polygon class="st0" points="173.2,240.6 173.2,200.6 138.6,180.6 103.9,200.6 103.9,240.6 138.6,260.6 	"/>
	<polygon class="st0" points="242.5,240.6 242.5,200.6 207.8,180.6 173.2,200.6 173.2,240.6 207.8,260.6 	"/>
	<polygon class="st0" points="311.8,240.6 311.8,200.6 277.1,180.6 242.5,200.6 242.5,240.6 277.1,260.6 	"/>
	<polygon class="st0" points="381.1,240.6 381.1,200.6 346.4,180.6 311.8,200.6 311.8,240.6 346.4,260.6 	"/>
	<polygon class="st0" points="450.3,240.6 450.3,200.6 415.7,180.6 381.1,200.6 381.1,240.6 415.7,260.6 	"/>
	<polygon class="st0" points="519.6,240.6 519.6,200.6 485,180.6 450.3,200.6 450.3,240.6 485,260.6 	"/>
	<polygon class="st0" points="588.9,240.6 588.9,200.6 554.3,180.6 519.6,200.6 519.6,240.6 554.3,260.6 	"/>
	<polygon class="st0" points="658.2,240.6 658.2,200.6 623.5,180.6 588.9,200.6 588.9,240.6 623.5,260.6 	"/>
	<polygon class="st0" points="727.5,240.6 727.5,200.6 692.8,180.6 658.2,200.6 658.2,240.6 692.8,260.6 	"/>
	<polygon class="st0" points="796.7,240.6 796.7,200.6 762.1,180.6 727.5,200.6 727.5,240.6 762.1,260.6 	"/>
	<polygon class="st0" points="866,240.6 866,200.6 831.4,180.6 796.7,200.6 796.7,240.6 831.4,260.6 	"/>
	<polygon class="st0" points="935.3,240.6 935.3,200.6 900.7,180.6 866,200.6 866,240.6 900.7,260.6 	"/>
	<polygon class="st0" points="1004.6,240.6 1004.6,200.6 969.9,180.6 935.3,200.6 935.3,240.6 969.9,260.6 	"/>
	<polygon class="st0" points="1073.9,240.6 1073.9,200.6 1039.2,180.6 1004.6,200.6 1004.6,240.6 1039.2,260.6 	"/>
	<polygon class="st0" points="1143.2,240.6 1143.2,200.6 1108.5,180.6 1073.9,200.6 1073.9,240.6 1108.5,260.6 	"/>
	<polygon class="st0" points="1212.4,240.6 1212.4,200.6 1177.8,180.6 1143.2,200.6 1143.2,240.6 1177.8,260.6 	"/>
	<polygon class="st0" points="1281.7,240.6 1281.7,200.6 1247.1,180.6 1212.4,200.6 1212.4,240.6 1247.1,260.6 	"/>
	<polygon class="st0" points="1351,240.6 1351,200.6 1316.4,180.6 1281.7,200.6 1281.7,240.6 1316.4,260.6 	"/>
	<polygon class="st0" points="1420.3,240.6 1420.3,200.6 1385.6,180.6 1351,200.6 1351,240.6 1385.6,260.6 	"/>
	<polygon class="st0" points="1489.6,240.6 1489.6,200.6 1454.9,180.6 1420.3,200.6 1420.3,240.6 1454.9,260.6 	"/>
	<polygon class="st0" points="1558.8,240.6 1558.8,200.6 1524.2,180.6 1489.6,200.6 1489.6,240.6 1524.2,260.6 	"/>
	<polygon class="st0" points="1628.1,240.6 1628.1,200.6 1593.5,180.6 1558.8,200.6 1558.8,240.6 1593.5,260.6 	"/>
	<polygon class="st0" points="1697.4,240.6 1697.4,200.6 1662.8,180.6 1628.1,200.6 1628.1,240.6 1662.8,260.6 	"/>
	<polygon class="st0" points="1766.7,240.6 1766.7,200.6 1732.1,180.6 1697.4,200.6 1697.4,240.6 1732.1,260.6 	"/>
	<polygon class="st0" points="1836,240.6 1836,200.6 1801.3,180.6 1766.7,200.6 1766.7,240.6 1801.3,260.6 	"/>
	<polygon class="st0" points="1905.3,240.6 1905.3,200.6 1870.6,180.6 1836,200.6 1836,240.6 1870.6,260.6 	"/>
	<polygon class="st0" points="1974.5,240.6 1974.5,200.6 1939.9,180.6 1905.3,200.6 1905.3,240.6 1939.9,260.6 	"/>
</g>
<g>
	<polygon class="st0" points="69.3,301 69.3,261 34.6,241 0,261 0,301 34.6,321 	"/>
	<polygon class="st0" points="138.6,301 138.6,261 103.9,241 69.3,261 69.3,301 103.9,321 	"/>
	<polygon class="st0" points="207.8,301 207.8,261 173.2,241 138.6,261 138.6,301 173.2,321 	"/>
	<polygon class="st0" points="277.1,301 277.1,261 242.5,241 207.8,261 207.8,301 242.5,321 	"/>
	<polygon class="st0" points="346.4,301 346.4,261 311.8,241 277.1,261 277.1,301 311.8,321 	"/>
	<polygon class="st0" points="415.7,301 415.7,261 381.1,241 346.4,261 346.4,301 381.1,321 	"/>
	<polygon class="st0" points="485,301 485,261 450.3,241 415.7,261 415.7,301 450.3,321 	"/>
	<polygon class="st0" points="554.3,301 554.3,261 519.6,241 485,261 485,301 519.6,321 	"/>
	<polygon class="st0" points="623.5,301 623.5,261 588.9,241 554.3,261 554.3,301 588.9,321 	"/>
	<polygon class="st0" points="692.8,301 692.8,261 658.2,241 623.5,261 623.5,301 658.2,321 	"/>
	<polygon class="st0" points="762.1,301 762.1,261 727.5,241 692.8,261 692.8,301 727.5,321 	"/>
	<polygon class="st0" points="831.4,301 831.4,261 796.7,241 762.1,261 762.1,301 796.7,321 	"/>
	<polygon class="st0" points="900.7,301 900.7,261 866,241 831.4,261 831.4,301 866,321 	"/>
	<polygon class="st0" points="969.9,301 969.9,261 935.3,241 900.7,261 900.7,301 935.3,321 	"/>
	<polygon class="st0" points="1039.2,301 1039.2,261 1004.6,241 969.9,261 969.9,301 1004.6,321 	"/>
	<polygon class="st0" points="1108.5,301 1108.5,261 1073.9,241 1039.2,261 1039.2,301 1073.9,321 	"/>
	<polygon class="st0" points="1177.8,301 1177.8,261 1143.2,241 1108.5,261 1108.5,301 1143.2,321 	"/>
	<polygon class="st0" points="1247.1,301 1247.1,261 1212.4,241 1177.8,261 1177.8,301 1212.4,321 	"/>
	<polygon class="st0" points="1316.4,301 1316.4,261 1281.7,241 1247.1,261 1247.1,301 1281.7,321 	"/>
	<polygon class="st0" points="1385.6,301 1385.6,261 1351,241 1316.4,261 1316.4,301 1351,321 	"/>
	<polygon class="st0" points="1454.9,301 1454.9,261 1420.3,241 1385.6,261 1385.6,301 1420.3,321 	"/>
	<polygon class="st0" points="1524.2,301 1524.2,261 1489.6,241 1454.9,261 1454.9,301 1489.6,321 	"/>
	<polygon class="st0" points="1593.5,301 1593.5,261 1558.8,241 1524.2,261 1524.2,301 1558.8,321 	"/>
	<polygon class="st0" points="1662.8,301 1662.8,261 1628.1,241 1593.5,261 1593.5,301 1628.1,321 	"/>
	<polygon class="st0" points="1732.1,301 1732.1,261 1697.4,241 1662.8,261 1662.8,301 1697.4,321 	"/>
	<polygon class="st0" points="1801.3,301 1801.3,261 1766.7,241 1732.1,261 1732.1,301 1766.7,321 	"/>
	<polygon class="st0" points="1870.6,301 1870.6,261 1836,241 1801.3,261 1801.3,301 1836,321 	"/>
	<polygon class="st0" points="1939.9,301 1939.9,261 1905.3,241 1870.6,261 1870.6,301 1905.3,321 	"/>
</g>
<g>
	<polygon class="st0" points="103.9,361.3 103.9,321.3 69.3,301.3 34.6,321.3 34.6,361.3 69.3,381.3 	"/>
	<polygon class="st0" points="173.2,361.3 173.2,321.3 138.6,301.3 103.9,321.3 103.9,361.3 138.6,381.3 	"/>
	<polygon class="st0" points="242.5,361.3 242.5,321.3 207.8,301.3 173.2,321.3 173.2,361.3 207.8,381.3 	"/>
	<polygon class="st0" points="311.8,361.3 311.8,321.3 277.1,301.3 242.5,321.3 242.5,361.3 277.1,381.3 	"/>
	<polygon class="st0" points="381.1,361.3 381.1,321.3 346.4,301.3 311.8,321.3 311.8,361.3 346.4,381.3 	"/>
	<polygon class="st0" points="450.3,361.3 450.3,321.3 415.7,301.3 381.1,321.3 381.1,361.3 415.7,381.3 	"/>
	<polygon class="st0" points="519.6,361.3 519.6,321.3 485,301.3 450.3,321.3 450.3,361.3 485,381.3 	"/>
	<polygon class="st0" points="588.9,361.3 588.9,321.3 554.3,301.3 519.6,321.3 519.6,361.3 554.3,381.3 	"/>
	<polygon class="st0" points="658.2,361.3 658.2,321.3 623.5,301.3 588.9,321.3 588.9,361.3 623.5,381.3 	"/>
	<polygon class="st0" points="727.5,361.3 727.5,321.3 692.8,301.3 658.2,321.3 658.2,361.3 692.8,381.3 	"/>
	<polygon class="st0" points="796.7,361.3 796.7,321.3 762.1,301.3 727.5,321.3 727.5,361.3 762.1,381.3 	"/>
	<polygon class="st0" points="866,361.3 866,321.3 831.4,301.3 796.7,321.3 796.7,361.3 831.4,381.3 	"/>
	<polygon class="st0" points="935.3,361.3 935.3,321.3 900.7,301.3 866,321.3 866,361.3 900.7,381.3 	"/>
	<polygon class="st0" points="1004.6,361.3 1004.6,321.3 969.9,301.3 935.3,321.3 935.3,361.3 969.9,381.3 	"/>
	<polygon class="st0" points="1073.9,361.3 1073.9,321.3 1039.2,301.3 1004.6,321.3 1004.6,361.3 1039.2,381.3 	"/>
	<polygon class="st0" points="1143.2,361.3 1143.2,321.3 1108.5,301.3 1073.9,321.3 1073.9,361.3 1108.5,381.3 	"/>
	<polygon class="st0" points="1212.4,361.3 1212.4,321.3 1177.8,301.3 1143.2,321.3 1143.2,361.3 1177.8,381.3 	"/>
	<polygon class="st0" points="1281.7,361.3 1281.7,321.3 1247.1,301.3 1212.4,321.3 1212.4,361.3 1247.1,381.3 	"/>
	<polygon class="st0" points="1351,361.3 1351,321.3 1316.4,301.3 1281.7,321.3 1281.7,361.3 1316.4,381.3 	"/>
	<polygon class="st0" points="1420.3,361.3 1420.3,321.3 1385.6,301.3 1351,321.3 1351,361.3 1385.6,381.3 	"/>
	<polygon class="st0" points="1489.6,361.3 1489.6,321.3 1454.9,301.3 1420.3,321.3 1420.3,361.3 1454.9,381.3 	"/>
	<polygon class="st0" points="1558.8,361.3 1558.8,321.3 1524.2,301.3 1489.6,321.3 1489.6,361.3 1524.2,381.3 	"/>
	<polygon class="st0" points="1628.1,361.3 1628.1,321.3 1593.5,301.3 1558.8,321.3 1558.8,361.3 1593.5,381.3 	"/>
	<polygon class="st0" points="1697.4,361.3 1697.4,321.3 1662.8,301.3 1628.1,321.3 1628.1,361.3 1662.8,381.3 	"/>
	<polygon class="st0" points="1766.7,361.3 1766.7,321.3 1732.1,301.3 1697.4,321.3 1697.4,361.3 1732.1,381.3 	"/>
	<polygon class="st0" points="1836,361.3 1836,321.3 1801.3,301.3 1766.7,321.3 1766.7,361.3 1801.3,381.3 	"/>
	<polygon class="st0" points="1905.3,361.3 1905.3,321.3 1870.6,301.3 1836,321.3 1836,361.3 1870.6,381.3 	"/>
	<polygon class="st0" points="1974.5,361.3 1974.5,321.3 1939.9,301.3 1905.3,321.3 1905.3,361.3 1939.9,381.3 	"/>
</g>
<g>
	<polygon class="st0" points="69.3,421.3 69.3,381.3 34.6,361.3 0,381.3 0,421.3 34.6,441.3 	"/>
	<polygon class="st0" points="138.6,421.3 138.6,381.3 103.9,361.3 69.3,381.3 69.3,421.3 103.9,441.3 	"/>
	<polygon class="st0" points="207.8,421.3 207.8,381.3 173.2,361.3 138.6,381.3 138.6,421.3 173.2,441.3 	"/>
	<polygon class="st0" points="277.1,421.3 277.1,381.3 242.5,361.3 207.8,381.3 207.8,421.3 242.5,441.3 	"/>
	<polygon class="st0" points="346.4,421.3 346.4,381.3 311.8,361.3 277.1,381.3 277.1,421.3 311.8,441.3 	"/>
	<polygon class="st0" points="415.7,421.3 415.7,381.3 381.1,361.3 346.4,381.3 346.4,421.3 381.1,441.3 	"/>
	<polygon class="st0" points="485,421.3 485,381.3 450.3,361.3 415.7,381.3 415.7,421.3 450.3,441.3 	"/>
	<polygon class="st0" points="554.3,421.3 554.3,381.3 519.6,361.3 485,381.3 485,421.3 519.6,441.3 	"/>
	<polygon class="st0" points="623.5,421.3 623.5,381.3 588.9,361.3 554.3,381.3 554.3,421.3 588.9,441.3 	"/>
	<polygon class="st0" points="692.8,421.3 692.8,381.3 658.2,361.3 623.5,381.3 623.5,421.3 658.2,441.3 	"/>
	<polygon class="st0" points="762.1,421.3 762.1,381.3 727.5,361.3 692.8,381.3 692.8,421.3 727.5,441.3 	"/>
	<polygon class="st0" points="831.4,421.3 831.4,381.3 796.7,361.3 762.1,381.3 762.1,421.3 796.7,441.3 	"/>
	<polygon class="st0" points="900.7,421.3 900.7,381.3 866,361.3 831.4,381.3 831.4,421.3 866,441.3 	"/>
	<polygon class="st0" points="969.9,421.3 969.9,381.3 935.3,361.3 900.7,381.3 900.7,421.3 935.3,441.3 	"/>
	<polygon class="st0" points="1039.2,421.3 1039.2,381.3 1004.6,361.3 969.9,381.3 969.9,421.3 1004.6,441.3 	"/>
	<polygon class="st0" points="1108.5,421.3 1108.5,381.3 1073.9,361.3 1039.2,381.3 1039.2,421.3 1073.9,441.3 	"/>
	<polygon class="st0" points="1177.8,421.3 1177.8,381.3 1143.2,361.3 1108.5,381.3 1108.5,421.3 1143.2,441.3 	"/>
	<polygon class="st0" points="1247.1,421.3 1247.1,381.3 1212.4,361.3 1177.8,381.3 1177.8,421.3 1212.4,441.3 	"/>
	<polygon class="st0" points="1316.4,421.3 1316.4,381.3 1281.7,361.3 1247.1,381.3 1247.1,421.3 1281.7,441.3 	"/>
	<polygon class="st0" points="1385.6,421.3 1385.6,381.3 1351,361.3 1316.4,381.3 1316.4,421.3 1351,441.3 	"/>
	<polygon class="st0" points="1454.9,421.3 1454.9,381.3 1420.3,361.3 1385.6,381.3 1385.6,421.3 1420.3,441.3 	"/>
	<polygon class="st0" points="1524.2,421.3 1524.2,381.3 1489.6,361.3 1454.9,381.3 1454.9,421.3 1489.6,441.3 	"/>
	<polygon class="st0" points="1593.5,421.3 1593.5,381.3 1558.8,361.3 1524.2,381.3 1524.2,421.3 1558.8,441.3 	"/>
	<polygon class="st0" points="1662.8,421.3 1662.8,381.3 1628.1,361.3 1593.5,381.3 1593.5,421.3 1628.1,441.3 	"/>
	<polygon class="st0" points="1732.1,421.3 1732.1,381.3 1697.4,361.3 1662.8,381.3 1662.8,421.3 1697.4,441.3 	"/>
	<polygon class="st0" points="1801.3,421.3 1801.3,381.3 1766.7,361.3 1732.1,381.3 1732.1,421.3 1766.7,441.3 	"/>
	<polygon class="st0" points="1870.6,421.3 1870.6,381.3 1836,361.3 1801.3,381.3 1801.3,421.3 1836,441.3 	"/>
	<polygon class="st0" points="1939.9,421.3 1939.9,381.3 1905.3,361.3 1870.6,381.3 1870.6,421.3 1905.3,441.3 	"/>
</g>
<g>
	<polygon class="st0" points="103.9,481.6 103.9,441.6 69.3,421.6 34.6,441.6 34.6,481.6 69.3,501.6 	"/>
	<polygon class="st0" points="173.2,481.6 173.2,441.6 138.6,421.6 103.9,441.6 103.9,481.6 138.6,501.6 	"/>
	<polygon class="st0" points="242.5,481.6 242.5,441.6 207.8,421.6 173.2,441.6 173.2,481.6 207.8,501.6 	"/>
	<polygon class="st0" points="311.8,481.6 311.8,441.6 277.1,421.6 242.5,441.6 242.5,481.6 277.1,501.6 	"/>
	<polygon class="st0" points="381.1,481.6 381.1,441.6 346.4,421.6 311.8,441.6 311.8,481.6 346.4,501.6 	"/>
	<polygon class="st0" points="450.3,481.6 450.3,441.6 415.7,421.6 381.1,441.6 381.1,481.6 415.7,501.6 	"/>
	<polygon class="st0" points="519.6,481.6 519.6,441.6 485,421.6 450.3,441.6 450.3,481.6 485,501.6 	"/>
	<polygon class="st0" points="588.9,481.6 588.9,441.6 554.3,421.6 519.6,441.6 519.6,481.6 554.3,501.6 	"/>
	<polygon class="st0" points="658.2,481.6 658.2,441.6 623.5,421.6 588.9,441.6 588.9,481.6 623.5,501.6 	"/>
	<polygon class="st0" points="727.5,481.6 727.5,441.6 692.8,421.6 658.2,441.6 658.2,481.6 692.8,501.6 	"/>
	<polygon class="st0" points="796.7,481.6 796.7,441.6 762.1,421.6 727.5,441.6 727.5,481.6 762.1,501.6 	"/>
	<polygon class="st0" points="866,481.6 866,441.6 831.4,421.6 796.7,441.6 796.7,481.6 831.4,501.6 	"/>
	<polygon class="st0" points="935.3,481.6 935.3,441.6 900.7,421.6 866,441.6 866,481.6 900.7,501.6 	"/>
	<polygon class="st0" points="1004.6,481.6 1004.6,441.6 969.9,421.6 935.3,441.6 935.3,481.6 969.9,501.6 	"/>
	<polygon class="st0" points="1073.9,481.6 1073.9,441.6 1039.2,421.6 1004.6,441.6 1004.6,481.6 1039.2,501.6 	"/>
	<polygon class="st0" points="1143.2,481.6 1143.2,441.6 1108.5,421.6 1073.9,441.6 1073.9,481.6 1108.5,501.6 	"/>
	<polygon class="st0" points="1212.4,481.6 1212.4,441.6 1177.8,421.6 1143.2,441.6 1143.2,481.6 1177.8,501.6 	"/>
	<polygon class="st0" points="1281.7,481.6 1281.7,441.6 1247.1,421.6 1212.4,441.6 1212.4,481.6 1247.1,501.6 	"/>
	<polygon class="st0" points="1351,481.6 1351,441.6 1316.4,421.6 1281.7,441.6 1281.7,481.6 1316.4,501.6 	"/>
	<polygon class="st0" points="1420.3,481.6 1420.3,441.6 1385.6,421.6 1351,441.6 1351,481.6 1385.6,501.6 	"/>
	<polygon class="st0" points="1489.6,481.6 1489.6,441.6 1454.9,421.6 1420.3,441.6 1420.3,481.6 1454.9,501.6 	"/>
	<polygon class="st0" points="1558.8,481.6 1558.8,441.6 1524.2,421.6 1489.6,441.6 1489.6,481.6 1524.2,501.6 	"/>
	<polygon class="st0" points="1628.1,481.6 1628.1,441.6 1593.5,421.6 1558.8,441.6 1558.8,481.6 1593.5,501.6 	"/>
	<polygon class="st0" points="1697.4,481.6 1697.4,441.6 1662.8,421.6 1628.1,441.6 1628.1,481.6 1662.8,501.6 	"/>
	<polygon class="st0" points="1766.7,481.6 1766.7,441.6 1732.1,421.6 1697.4,441.6 1697.4,481.6 1732.1,501.6 	"/>
	<polygon class="st0" points="1836,481.6 1836,441.6 1801.3,421.6 1766.7,441.6 1766.7,481.6 1801.3,501.6 	"/>
	<polygon class="st0" points="1905.3,481.6 1905.3,441.6 1870.6,421.6 1836,441.6 1836,481.6 1870.6,501.6 	"/>
	<polygon class="st0" points="1974.5,481.6 1974.5,441.6 1939.9,421.6 1905.3,441.6 1905.3,481.6 1939.9,501.6 	"/>
</g>
<g>
	<polygon class="st0" points="69.3,541.7 69.3,501.7 34.6,481.7 0,501.7 0,541.7 34.6,561.7 	"/>
	<polygon class="st0" points="138.6,541.7 138.6,501.7 103.9,481.7 69.3,501.7 69.3,541.7 103.9,561.7 	"/>
	<polygon class="st0" points="207.8,541.7 207.8,501.7 173.2,481.7 138.6,501.7 138.6,541.7 173.2,561.7 	"/>
	<polygon class="st0" points="277.1,541.7 277.1,501.7 242.5,481.7 207.8,501.7 207.8,541.7 242.5,561.7 	"/>
	<polygon class="st0" points="346.4,541.7 346.4,501.7 311.8,481.7 277.1,501.7 277.1,541.7 311.8,561.7 	"/>
	<polygon class="st0" points="415.7,541.7 415.7,501.7 381.1,481.7 346.4,501.7 346.4,541.7 381.1,561.7 	"/>
	<polygon class="st0" points="485,541.7 485,501.7 450.3,481.7 415.7,501.7 415.7,541.7 450.3,561.7 	"/>
	<polygon class="st0" points="554.3,541.7 554.3,501.7 519.6,481.7 485,501.7 485,541.7 519.6,561.7 	"/>
	<polygon class="st0" points="623.5,541.7 623.5,501.7 588.9,481.7 554.3,501.7 554.3,541.7 588.9,561.7 	"/>
	<polygon class="st0" points="692.8,541.7 692.8,501.7 658.2,481.7 623.5,501.7 623.5,541.7 658.2,561.7 	"/>
	<polygon class="st0" points="762.1,541.7 762.1,501.7 727.5,481.7 692.8,501.7 692.8,541.7 727.5,561.7 	"/>
	<polygon class="st0" points="831.4,541.7 831.4,501.7 796.7,481.7 762.1,501.7 762.1,541.7 796.7,561.7 	"/>
	<polygon class="st0" points="900.7,541.7 900.7,501.7 866,481.7 831.4,501.7 831.4,541.7 866,561.7 	"/>
	<polygon class="st0" points="969.9,541.7 969.9,501.7 935.3,481.7 900.7,501.7 900.7,541.7 935.3,561.7 	"/>
	<polygon class="st0" points="1039.2,541.7 1039.2,501.7 1004.6,481.7 969.9,501.7 969.9,541.7 1004.6,561.7 	"/>
	<polygon class="st0" points="1108.5,541.7 1108.5,501.7 1073.9,481.7 1039.2,501.7 1039.2,541.7 1073.9,561.7 	"/>
	<polygon class="st0" points="1177.8,541.7 1177.8,501.7 1143.2,481.7 1108.5,501.7 1108.5,541.7 1143.2,561.7 	"/>
	<polygon class="st0" points="1247.1,541.7 1247.1,501.7 1212.4,481.7 1177.8,501.7 1177.8,541.7 1212.4,561.7 	"/>
	<polygon class="st0" points="1316.4,541.7 1316.4,501.7 1281.7,481.7 1247.1,501.7 1247.1,541.7 1281.7,561.7 	"/>
	<polygon class="st0" points="1385.6,541.7 1385.6,501.7 1351,481.7 1316.4,501.7 1316.4,541.7 1351,561.7 	"/>
	<polygon class="st0" points="1454.9,541.7 1454.9,501.7 1420.3,481.7 1385.6,501.7 1385.6,541.7 1420.3,561.7 	"/>
	<polygon class="st0" points="1524.2,541.7 1524.2,501.7 1489.6,481.7 1454.9,501.7 1454.9,541.7 1489.6,561.7 	"/>
	<polygon class="st0" points="1593.5,541.7 1593.5,501.7 1558.8,481.7 1524.2,501.7 1524.2,541.7 1558.8,561.7 	"/>
	<polygon class="st0" points="1662.8,541.7 1662.8,501.7 1628.1,481.7 1593.5,501.7 1593.5,541.7 1628.1,561.7 	"/>
	<polygon class="st0" points="1732.1,541.7 1732.1,501.7 1697.4,481.7 1662.8,501.7 1662.8,541.7 1697.4,561.7 	"/>
	<polygon class="st0" points="1801.3,541.7 1801.3,501.7 1766.7,481.7 1732.1,501.7 1732.1,541.7 1766.7,561.7 	"/>
	<polygon class="st0" points="1870.6,541.7 1870.6,501.7 1836,481.7 1801.3,501.7 1801.3,541.7 1836,561.7 	"/>
	<polygon class="st0" points="1939.9,541.7 1939.9,501.7 1905.3,481.7 1870.6,501.7 1870.6,541.7 1905.3,561.7 	"/>
</g>
<g>
	<polygon class="st0" points="103.9,601.9 103.9,561.9 69.3,541.9 34.6,561.9 34.6,601.9 69.3,621.9 	"/>
	<polygon class="st0" points="173.2,601.9 173.2,561.9 138.6,541.9 103.9,561.9 103.9,601.9 138.6,621.9 	"/>
	<polygon class="st0" points="242.5,601.9 242.5,561.9 207.8,541.9 173.2,561.9 173.2,601.9 207.8,621.9 	"/>
	<polygon class="st0" points="311.8,601.9 311.8,561.9 277.1,541.9 242.5,561.9 242.5,601.9 277.1,621.9 	"/>
	<polygon class="st0" points="381.1,601.9 381.1,561.9 346.4,541.9 311.8,561.9 311.8,601.9 346.4,621.9 	"/>
	<polygon class="st0" points="450.3,601.9 450.3,561.9 415.7,541.9 381.1,561.9 381.1,601.9 415.7,621.9 	"/>
	<polygon class="st0" points="519.6,601.9 519.6,561.9 485,541.9 450.3,561.9 450.3,601.9 485,621.9 	"/>
	<polygon class="st0" points="588.9,601.9 588.9,561.9 554.3,541.9 519.6,561.9 519.6,601.9 554.3,621.9 	"/>
	<polygon class="st0" points="658.2,601.9 658.2,561.9 623.5,541.9 588.9,561.9 588.9,601.9 623.5,621.9 	"/>
	<polygon class="st0" points="727.5,601.9 727.5,561.9 692.8,541.9 658.2,561.9 658.2,601.9 692.8,621.9 	"/>
	<polygon class="st0" points="796.7,601.9 796.7,561.9 762.1,541.9 727.5,561.9 727.5,601.9 762.1,621.9 	"/>
	<polygon class="st0" points="866,601.9 866,561.9 831.4,541.9 796.7,561.9 796.7,601.9 831.4,621.9 	"/>
	<polygon class="st0" points="935.3,601.9 935.3,561.9 900.7,541.9 866,561.9 866,601.9 900.7,621.9 	"/>
	<polygon class="st0" points="1004.6,601.9 1004.6,561.9 969.9,541.9 935.3,561.9 935.3,601.9 969.9,621.9 	"/>
	<polygon class="st0" points="1073.9,601.9 1073.9,561.9 1039.2,541.9 1004.6,561.9 1004.6,601.9 1039.2,621.9 	"/>
	<polygon class="st0" points="1143.2,601.9 1143.2,561.9 1108.5,541.9 1073.9,561.9 1073.9,601.9 1108.5,621.9 	"/>
	<polygon class="st0" points="1212.4,601.9 1212.4,561.9 1177.8,541.9 1143.2,561.9 1143.2,601.9 1177.8,621.9 	"/>
	<polygon class="st0" points="1281.7,601.9 1281.7,561.9 1247.1,541.9 1212.4,561.9 1212.4,601.9 1247.1,621.9 	"/>
	<polygon class="st0" points="1351,601.9 1351,561.9 1316.4,541.9 1281.7,561.9 1281.7,601.9 1316.4,621.9 	"/>
	<polygon class="st0" points="1420.3,601.9 1420.3,561.9 1385.6,541.9 1351,561.9 1351,601.9 1385.6,621.9 	"/>
	<polygon class="st0" points="1489.6,601.9 1489.6,561.9 1454.9,541.9 1420.3,561.9 1420.3,601.9 1454.9,621.9 	"/>
	<polygon class="st0" points="1558.8,601.9 1558.8,561.9 1524.2,541.9 1489.6,561.9 1489.6,601.9 1524.2,621.9 	"/>
	<polygon class="st0" points="1628.1,601.9 1628.1,561.9 1593.5,541.9 1558.8,561.9 1558.8,601.9 1593.5,621.9 	"/>
	<polygon class="st0" points="1697.4,601.9 1697.4,561.9 1662.8,541.9 1628.1,561.9 1628.1,601.9 1662.8,621.9 	"/>
	<polygon class="st0" points="1766.7,601.9 1766.7,561.9 1732.1,541.9 1697.4,561.9 1697.4,601.9 1732.1,621.9 	"/>
	<polygon class="st0" points="1836,601.9 1836,561.9 1801.3,541.9 1766.7,561.9 1766.7,601.9 1801.3,621.9 	"/>
	<polygon class="st0" points="1905.3,601.9 1905.3,561.9 1870.6,541.9 1836,561.9 1836,601.9 1870.6,621.9 	"/>
	<polygon class="st0" points="1974.5,601.9 1974.5,561.9 1939.9,541.9 1905.3,561.9 1905.3,601.9 1939.9,621.9 	"/>
</g>
<g>
	<polygon class="st0" points="69.3,662 69.3,622 34.6,602 0,622 0,662 34.6,682 	"/>
	<polygon class="st0" points="138.6,662 138.6,622 103.9,602 69.3,622 69.3,662 103.9,682 	"/>
	<polygon class="st0" points="207.8,662 207.8,622 173.2,602 138.6,622 138.6,662 173.2,682 	"/>
	<polygon class="st0" points="277.1,662 277.1,622 242.5,602 207.8,622 207.8,662 242.5,682 	"/>
	<polygon class="st0" points="346.4,662 346.4,622 311.8,602 277.1,622 277.1,662 311.8,682 	"/>
	<polygon class="st0" points="415.7,662 415.7,622 381.1,602 346.4,622 346.4,662 381.1,682 	"/>
	<polygon class="st0" points="485,662 485,622 450.3,602 415.7,622 415.7,662 450.3,682 	"/>
	<polygon class="st0" points="554.3,662 554.3,622 519.6,602 485,622 485,662 519.6,682 	"/>
	<polygon class="st0" points="623.5,662 623.5,622 588.9,602 554.3,622 554.3,662 588.9,682 	"/>
	<polygon class="st0" points="692.8,662 692.8,622 658.2,602 623.5,622 623.5,662 658.2,682 	"/>
	<polygon class="st0" points="762.1,662 762.1,622 727.5,602 692.8,622 692.8,662 727.5,682 	"/>
	<polygon class="st0" points="831.4,662 831.4,622 796.7,602 762.1,622 762.1,662 796.7,682 	"/>
	<polygon class="st0" points="900.7,662 900.7,622 866,602 831.4,622 831.4,662 866,682 	"/>
	<polygon class="st0" points="969.9,662 969.9,622 935.3,602 900.7,622 900.7,662 935.3,682 	"/>
	<polygon class="st0" points="1039.2,662 1039.2,622 1004.6,602 969.9,622 969.9,662 1004.6,682 	"/>
	<polygon class="st0" points="1108.5,662 1108.5,622 1073.9,602 1039.2,622 1039.2,662 1073.9,682 	"/>
	<polygon class="st0" points="1177.8,662 1177.8,622 1143.2,602 1108.5,622 1108.5,662 1143.2,682 	"/>
	<polygon class="st0" points="1247.1,662 1247.1,622 1212.4,602 1177.8,622 1177.8,662 1212.4,682 	"/>
	<polygon class="st0" points="1316.4,662 1316.4,622 1281.7,602 1247.1,622 1247.1,662 1281.7,682 	"/>
	<polygon class="st0" points="1385.6,662 1385.6,622 1351,602 1316.4,622 1316.4,662 1351,682 	"/>
	<polygon class="st0" points="1454.9,662 1454.9,622 1420.3,602 1385.6,622 1385.6,662 1420.3,682 	"/>
	<polygon class="st0" points="1524.2,662 1524.2,622 1489.6,602 1454.9,622 1454.9,662 1489.6,682 	"/>
	<polygon class="st0" points="1593.5,662 1593.5,622 1558.8,602 1524.2,622 1524.2,662 1558.8,682 	"/>
	<polygon class="st0" points="1662.8,662 1662.8,622 1628.1,602 1593.5,622 1593.5,662 1628.1,682 	"/>
	<polygon class="st0" points="1732.1,662 1732.1,622 1697.4,602 1662.8,622 1662.8,662 1697.4,682 	"/>
	<polygon class="st0" points="1801.3,662 1801.3,622 1766.7,602 1732.1,622 1732.1,662 1766.7,682 	"/>
	<polygon class="st0" points="1870.6,662 1870.6,622 1836,602 1801.3,622 1801.3,662 1836,682 	"/>
	<polygon class="st0" points="1939.9,662 1939.9,622 1905.3,602 1870.6,622 1870.6,662 1905.3,682 	"/>
</g>
<g>
	<polygon class="st0" points="103.9,722.3 103.9,682.3 69.3,662.3 34.6,682.3 34.6,722.3 69.3,742.3 	"/>
	<polygon class="st0" points="173.2,722.3 173.2,682.3 138.6,662.3 103.9,682.3 103.9,722.3 138.6,742.3 	"/>
	<polygon class="st0" points="242.5,722.3 242.5,682.3 207.8,662.3 173.2,682.3 173.2,722.3 207.8,742.3 	"/>
	<polygon class="st0" points="311.8,722.3 311.8,682.3 277.1,662.3 242.5,682.3 242.5,722.3 277.1,742.3 	"/>
	<polygon class="st0" points="381.1,722.3 381.1,682.3 346.4,662.3 311.8,682.3 311.8,722.3 346.4,742.3 	"/>
	<polygon class="st0" points="450.3,722.3 450.3,682.3 415.7,662.3 381.1,682.3 381.1,722.3 415.7,742.3 	"/>
	<polygon class="st0" points="519.6,722.3 519.6,682.3 485,662.3 450.3,682.3 450.3,722.3 485,742.3 	"/>
	<polygon class="st0" points="588.9,722.3 588.9,682.3 554.3,662.3 519.6,682.3 519.6,722.3 554.3,742.3 	"/>
	<polygon class="st0" points="658.2,722.3 658.2,682.3 623.5,662.3 588.9,682.3 588.9,722.3 623.5,742.3 	"/>
	<polygon class="st0" points="727.5,722.3 727.5,682.3 692.8,662.3 658.2,682.3 658.2,722.3 692.8,742.3 	"/>
	<polygon class="st0" points="796.7,722.3 796.7,682.3 762.1,662.3 727.5,682.3 727.5,722.3 762.1,742.3 	"/>
	<polygon class="st0" points="866,722.3 866,682.3 831.4,662.3 796.7,682.3 796.7,722.3 831.4,742.3 	"/>
	<polygon class="st0" points="935.3,722.3 935.3,682.3 900.7,662.3 866,682.3 866,722.3 900.7,742.3 	"/>
	<polygon class="st0" points="1004.6,722.3 1004.6,682.3 969.9,662.3 935.3,682.3 935.3,722.3 969.9,742.3 	"/>
	<polygon class="st0" points="1073.9,722.3 1073.9,682.3 1039.2,662.3 1004.6,682.3 1004.6,722.3 1039.2,742.3 	"/>
	<polygon class="st0" points="1143.2,722.3 1143.2,682.3 1108.5,662.3 1073.9,682.3 1073.9,722.3 1108.5,742.3 	"/>
	<polygon class="st0" points="1212.4,722.3 1212.4,682.3 1177.8,662.3 1143.2,682.3 1143.2,722.3 1177.8,742.3 	"/>
	<polygon class="st0" points="1281.7,722.3 1281.7,682.3 1247.1,662.3 1212.4,682.3 1212.4,722.3 1247.1,742.3 	"/>
	<polygon class="st0" points="1351,722.3 1351,682.3 1316.4,662.3 1281.7,682.3 1281.7,722.3 1316.4,742.3 	"/>
	<polygon class="st0" points="1420.3,722.3 1420.3,682.3 1385.6,662.3 1351,682.3 1351,722.3 1385.6,742.3 	"/>
	<polygon class="st0" points="1489.6,722.3 1489.6,682.3 1454.9,662.3 1420.3,682.3 1420.3,722.3 1454.9,742.3 	"/>
	<polygon class="st0" points="1558.8,722.3 1558.8,682.3 1524.2,662.3 1489.6,682.3 1489.6,722.3 1524.2,742.3 	"/>
	<polygon class="st0" points="1628.1,722.3 1628.1,682.3 1593.5,662.3 1558.8,682.3 1558.8,722.3 1593.5,742.3 	"/>
	<polygon class="st0" points="1697.4,722.3 1697.4,682.3 1662.8,662.3 1628.1,682.3 1628.1,722.3 1662.8,742.3 	"/>
	<polygon class="st0" points="1766.7,722.3 1766.7,682.3 1732.1,662.3 1697.4,682.3 1697.4,722.3 1732.1,742.3 	"/>
	<polygon class="st0" points="1836,722.3 1836,682.3 1801.3,662.3 1766.7,682.3 1766.7,722.3 1801.3,742.3 	"/>
	<polygon class="st0" points="1905.3,722.3 1905.3,682.3 1870.6,662.3 1836,682.3 1836,722.3 1870.6,742.3 	"/>
	<polygon class="st0" points="1974.5,722.3 1974.5,682.3 1939.9,662.3 1905.3,682.3 1905.3,722.3 1939.9,742.3 	"/>
</g>
<g>
	<polygon class="st0" points="69.3,782.7 69.3,742.7 34.6,722.7 0,742.7 0,782.7 34.6,802.7 	"/>
	<polygon class="st0" points="138.6,782.7 138.6,742.7 103.9,722.7 69.3,742.7 69.3,782.7 103.9,802.7 	"/>
	<polygon class="st0" points="207.8,782.7 207.8,742.7 173.2,722.7 138.6,742.7 138.6,782.7 173.2,802.7 	"/>
	<polygon class="st0" points="277.1,782.7 277.1,742.7 242.5,722.7 207.8,742.7 207.8,782.7 242.5,802.7 	"/>
	<polygon class="st0" points="346.4,782.7 346.4,742.7 311.8,722.7 277.1,742.7 277.1,782.7 311.8,802.7 	"/>
	<polygon class="st0" points="415.7,782.7 415.7,742.7 381.1,722.7 346.4,742.7 346.4,782.7 381.1,802.7 	"/>
	<polygon class="st0" points="485,782.7 485,742.7 450.3,722.7 415.7,742.7 415.7,782.7 450.3,802.7 	"/>
	<polygon class="st0" points="554.3,782.7 554.3,742.7 519.6,722.7 485,742.7 485,782.7 519.6,802.7 	"/>
	<polygon class="st0" points="623.5,782.7 623.5,742.7 588.9,722.7 554.3,742.7 554.3,782.7 588.9,802.7 	"/>
	<polygon class="st0" points="692.8,782.7 692.8,742.7 658.2,722.7 623.5,742.7 623.5,782.7 658.2,802.7 	"/>
	<polygon class="st0" points="762.1,782.7 762.1,742.7 727.5,722.7 692.8,742.7 692.8,782.7 727.5,802.7 	"/>
	<polygon class="st0" points="831.4,782.7 831.4,742.7 796.7,722.7 762.1,742.7 762.1,782.7 796.7,802.7 	"/>
	<polygon class="st0" points="900.7,782.7 900.7,742.7 866,722.7 831.4,742.7 831.4,782.7 866,802.7 	"/>
	<polygon class="st0" points="969.9,782.7 969.9,742.7 935.3,722.7 900.7,742.7 900.7,782.7 935.3,802.7 	"/>
	<polygon class="st0" points="1039.2,782.7 1039.2,742.7 1004.6,722.7 969.9,742.7 969.9,782.7 1004.6,802.7 	"/>
	<polygon class="st0" points="1108.5,782.7 1108.5,742.7 1073.9,722.7 1039.2,742.7 1039.2,782.7 1073.9,802.7 	"/>
	<polygon class="st0" points="1177.8,782.7 1177.8,742.7 1143.2,722.7 1108.5,742.7 1108.5,782.7 1143.2,802.7 	"/>
	<polygon class="st0" points="1247.1,782.7 1247.1,742.7 1212.4,722.7 1177.8,742.7 1177.8,782.7 1212.4,802.7 	"/>
	<polygon class="st0" points="1316.4,782.7 1316.4,742.7 1281.7,722.7 1247.1,742.7 1247.1,782.7 1281.7,802.7 	"/>
	<polygon class="st0" points="1385.6,782.7 1385.6,742.7 1351,722.7 1316.4,742.7 1316.4,782.7 1351,802.7 	"/>
	<polygon class="st0" points="1454.9,782.7 1454.9,742.7 1420.3,722.7 1385.6,742.7 1385.6,782.7 1420.3,802.7 	"/>
	<polygon class="st0" points="1524.2,782.7 1524.2,742.7 1489.6,722.7 1454.9,742.7 1454.9,782.7 1489.6,802.7 	"/>
	<polygon class="st0" points="1593.5,782.7 1593.5,742.7 1558.8,722.7 1524.2,742.7 1524.2,782.7 1558.8,802.7 	"/>
	<polygon class="st0" points="1662.8,782.7 1662.8,742.7 1628.1,722.7 1593.5,742.7 1593.5,782.7 1628.1,802.7 	"/>
	<polygon class="st0" points="1732.1,782.7 1732.1,742.7 1697.4,722.7 1662.8,742.7 1662.8,782.7 1697.4,802.7 	"/>
	<polygon class="st0" points="1801.3,782.7 1801.3,742.7 1766.7,722.7 1732.1,742.7 1732.1,782.7 1766.7,802.7 	"/>
	<polygon class="st0" points="1870.6,782.7 1870.6,742.7 1836,722.7 1801.3,742.7 1801.3,782.7 1836,802.7 	"/>
	<polygon class="st0" points="1939.9,782.7 1939.9,742.7 1905.3,722.7 1870.6,742.7 1870.6,782.7 1905.3,802.7 	"/>
</g>
<g>
	<polygon class="st0" points="103.9,842.9 103.9,802.9 69.3,782.9 34.6,802.9 34.6,842.9 69.3,862.9 	"/>
	<polygon class="st0" points="173.2,842.9 173.2,802.9 138.6,782.9 103.9,802.9 103.9,842.9 138.6,862.9 	"/>
	<polygon class="st0" points="242.5,842.9 242.5,802.9 207.8,782.9 173.2,802.9 173.2,842.9 207.8,862.9 	"/>
	<polygon class="st0" points="311.8,842.9 311.8,802.9 277.1,782.9 242.5,802.9 242.5,842.9 277.1,862.9 	"/>
	<polygon class="st0" points="381.1,842.9 381.1,802.9 346.4,782.9 311.8,802.9 311.8,842.9 346.4,862.9 	"/>
	<polygon class="st0" points="450.3,842.9 450.3,802.9 415.7,782.9 381.1,802.9 381.1,842.9 415.7,862.9 	"/>
	<polygon class="st0" points="519.6,842.9 519.6,802.9 485,782.9 450.3,802.9 450.3,842.9 485,862.9 	"/>
	<polygon class="st0" points="588.9,842.9 588.9,802.9 554.3,782.9 519.6,802.9 519.6,842.9 554.3,862.9 	"/>
	<polygon class="st0" points="658.2,842.9 658.2,802.9 623.5,782.9 588.9,802.9 588.9,842.9 623.5,862.9 	"/>
	<polygon class="st0" points="727.5,842.9 727.5,802.9 692.8,782.9 658.2,802.9 658.2,842.9 692.8,862.9 	"/>
	<polygon class="st0" points="796.7,842.9 796.7,802.9 762.1,782.9 727.5,802.9 727.5,842.9 762.1,862.9 	"/>
	<polygon class="st0" points="866,842.9 866,802.9 831.4,782.9 796.7,802.9 796.7,842.9 831.4,862.9 	"/>
	<polygon class="st0" points="935.3,842.9 935.3,802.9 900.7,782.9 866,802.9 866,842.9 900.7,862.9 	"/>
	<polygon class="st0" points="1004.6,842.9 1004.6,802.9 969.9,782.9 935.3,802.9 935.3,842.9 969.9,862.9 	"/>
	<polygon class="st0" points="1073.9,842.9 1073.9,802.9 1039.2,782.9 1004.6,802.9 1004.6,842.9 1039.2,862.9 	"/>
	<polygon class="st0" points="1143.2,842.9 1143.2,802.9 1108.5,782.9 1073.9,802.9 1073.9,842.9 1108.5,862.9 	"/>
	<polygon class="st0" points="1212.4,842.9 1212.4,802.9 1177.8,782.9 1143.2,802.9 1143.2,842.9 1177.8,862.9 	"/>
	<polygon class="st0" points="1281.7,842.9 1281.7,802.9 1247.1,782.9 1212.4,802.9 1212.4,842.9 1247.1,862.9 	"/>
	<polygon class="st0" points="1351,842.9 1351,802.9 1316.4,782.9 1281.7,802.9 1281.7,842.9 1316.4,862.9 	"/>
	<polygon class="st0" points="1420.3,842.9 1420.3,802.9 1385.6,782.9 1351,802.9 1351,842.9 1385.6,862.9 	"/>
	<polygon class="st0" points="1489.6,842.9 1489.6,802.9 1454.9,782.9 1420.3,802.9 1420.3,842.9 1454.9,862.9 	"/>
	<polygon class="st0" points="1558.8,842.9 1558.8,802.9 1524.2,782.9 1489.6,802.9 1489.6,842.9 1524.2,862.9 	"/>
	<polygon class="st0" points="1628.1,842.9 1628.1,802.9 1593.5,782.9 1558.8,802.9 1558.8,842.9 1593.5,862.9 	"/>
	<polygon class="st0" points="1697.4,842.9 1697.4,802.9 1662.8,782.9 1628.1,802.9 1628.1,842.9 1662.8,862.9 	"/>
	<polygon class="st0" points="1766.7,842.9 1766.7,802.9 1732.1,782.9 1697.4,802.9 1697.4,842.9 1732.1,862.9 	"/>
	<polygon class="st0" points="1836,842.9 1836,802.9 1801.3,782.9 1766.7,802.9 1766.7,842.9 1801.3,862.9 	"/>
	<polygon class="st0" points="1905.3,842.9 1905.3,802.9 1870.6,782.9 1836,802.9 1836,842.9 1870.6,862.9 	"/>
	<polygon class="st0" points="1974.5,842.9 1974.5,802.9 1939.9,782.9 1905.3,802.9 1905.3,842.9 1939.9,862.9 	"/>
</g>
<g>
	<polygon class="st0" points="69.3,903 69.3,863 34.6,843 0,863 0,903 34.6,923 	"/>
	<polygon class="st0" points="138.6,903 138.6,863 103.9,843 69.3,863 69.3,903 103.9,923 	"/>
	<polygon class="st0" points="207.8,903 207.8,863 173.2,843 138.6,863 138.6,903 173.2,923 	"/>
	<polygon class="st0" points="277.1,903 277.1,863 242.5,843 207.8,863 207.8,903 242.5,923 	"/>
	<polygon class="st0" points="346.4,903 346.4,863 311.8,843 277.1,863 277.1,903 311.8,923 	"/>
	<polygon class="st0" points="415.7,903 415.7,863 381.1,843 346.4,863 346.4,903 381.1,923 	"/>
	<polygon class="st0" points="485,903 485,863 450.3,843 415.7,863 415.7,903 450.3,923 	"/>
	<polygon class="st0" points="554.3,903 554.3,863 519.6,843 485,863 485,903 519.6,923 	"/>
	<polygon class="st0" points="623.5,903 623.5,863 588.9,843 554.3,863 554.3,903 588.9,923 	"/>
	<polygon class="st0" points="692.8,903 692.8,863 658.2,843 623.5,863 623.5,903 658.2,923 	"/>
	<polygon class="st0" points="762.1,903 762.1,863 727.5,843 692.8,863 692.8,903 727.5,923 	"/>
	<polygon class="st0" points="831.4,903 831.4,863 796.7,843 762.1,863 762.1,903 796.7,923 	"/>
	<polygon class="st0" points="900.7,903 900.7,863 866,843 831.4,863 831.4,903 866,923 	"/>
	<polygon class="st0" points="969.9,903 969.9,863 935.3,843 900.7,863 900.7,903 935.3,923 	"/>
	<polygon class="st0" points="1039.2,903 1039.2,863 1004.6,843 969.9,863 969.9,903 1004.6,923 	"/>
	<polygon class="st0" points="1108.5,903 1108.5,863 1073.9,843 1039.2,863 1039.2,903 1073.9,923 	"/>
	<polygon class="st0" points="1177.8,903 1177.8,863 1143.2,843 1108.5,863 1108.5,903 1143.2,923 	"/>
	<polygon class="st0" points="1247.1,903 1247.1,863 1212.4,843 1177.8,863 1177.8,903 1212.4,923 	"/>
	<polygon class="st0" points="1316.4,903 1316.4,863 1281.7,843 1247.1,863 1247.1,903 1281.7,923 	"/>
	<polygon class="st0" points="1385.6,903 1385.6,863 1351,843 1316.4,863 1316.4,903 1351,923 	"/>
	<polygon class="st0" points="1454.9,903 1454.9,863 1420.3,843 1385.6,863 1385.6,903 1420.3,923 	"/>
	<polygon class="st0" points="1524.2,903 1524.2,863 1489.6,843 1454.9,863 1454.9,903 1489.6,923 	"/>
	<polygon class="st0" points="1593.5,903 1593.5,863 1558.8,843 1524.2,863 1524.2,903 1558.8,923 	"/>
	<polygon class="st0" points="1662.8,903 1662.8,863 1628.1,843 1593.5,863 1593.5,903 1628.1,923 	"/>
	<polygon class="st0" points="1732.1,903 1732.1,863 1697.4,843 1662.8,863 1662.8,903 1697.4,923 	"/>
	<polygon class="st0" points="1801.3,903 1801.3,863 1766.7,843 1732.1,863 1732.1,903 1766.7,923 	"/>
	<polygon class="st0" points="1870.6,903 1870.6,863 1836,843 1801.3,863 1801.3,903 1836,923 	"/>
	<polygon class="st0" points="1939.9,903 1939.9,863 1905.3,843 1870.6,863 1870.6,903 1905.3,923 	"/>
</g>
<g>
	<polygon class="st0" points="103.9,963.3 103.9,923.3 69.3,903.3 34.6,923.3 34.6,963.3 69.3,983.3 	"/>
	<polygon class="st0" points="173.2,963.3 173.2,923.3 138.6,903.3 103.9,923.3 103.9,963.3 138.6,983.3 	"/>
	<polygon class="st0" points="242.5,963.3 242.5,923.3 207.8,903.3 173.2,923.3 173.2,963.3 207.8,983.3 	"/>
	<polygon class="st0" points="311.8,963.3 311.8,923.3 277.1,903.3 242.5,923.3 242.5,963.3 277.1,983.3 	"/>
	<polygon class="st0" points="381.1,963.3 381.1,923.3 346.4,903.3 311.8,923.3 311.8,963.3 346.4,983.3 	"/>
	<polygon class="st0" points="450.3,963.3 450.3,923.3 415.7,903.3 381.1,923.3 381.1,963.3 415.7,983.3 	"/>
	<polygon class="st0" points="519.6,963.3 519.6,923.3 485,903.3 450.3,923.3 450.3,963.3 485,983.3 	"/>
	<polygon class="st0" points="588.9,963.3 588.9,923.3 554.3,903.3 519.6,923.3 519.6,963.3 554.3,983.3 	"/>
	<polygon class="st0" points="658.2,963.3 658.2,923.3 623.5,903.3 588.9,923.3 588.9,963.3 623.5,983.3 	"/>
	<polygon class="st0" points="727.5,963.3 727.5,923.3 692.8,903.3 658.2,923.3 658.2,963.3 692.8,983.3 	"/>
	<polygon class="st0" points="796.7,963.3 796.7,923.3 762.1,903.3 727.5,923.3 727.5,963.3 762.1,983.3 	"/>
	<polygon class="st0" points="866,963.3 866,923.3 831.4,903.3 796.7,923.3 796.7,963.3 831.4,983.3 	"/>
	<polygon class="st0" points="935.3,963.3 935.3,923.3 900.7,903.3 866,923.3 866,963.3 900.7,983.3 	"/>
	<polygon class="st0" points="1004.6,963.3 1004.6,923.3 969.9,903.3 935.3,923.3 935.3,963.3 969.9,983.3 	"/>
	<polygon class="st0" points="1073.9,963.3 1073.9,923.3 1039.2,903.3 1004.6,923.3 1004.6,963.3 1039.2,983.3 	"/>
	<polygon class="st0" points="1143.2,963.3 1143.2,923.3 1108.5,903.3 1073.9,923.3 1073.9,963.3 1108.5,983.3 	"/>
	<polygon class="st0" points="1212.4,963.3 1212.4,923.3 1177.8,903.3 1143.2,923.3 1143.2,963.3 1177.8,983.3 	"/>
	<polygon class="st0" points="1281.7,963.3 1281.7,923.3 1247.1,903.3 1212.4,923.3 1212.4,963.3 1247.1,983.3 	"/>
	<polygon class="st0" points="1351,963.3 1351,923.3 1316.4,903.3 1281.7,923.3 1281.7,963.3 1316.4,983.3 	"/>
	<polygon class="st0" points="1420.3,963.3 1420.3,923.3 1385.6,903.3 1351,923.3 1351,963.3 1385.6,983.3 	"/>
	<polygon class="st0" points="1489.6,963.3 1489.6,923.3 1454.9,903.3 1420.3,923.3 1420.3,963.3 1454.9,983.3 	"/>
	<polygon class="st0" points="1558.8,963.3 1558.8,923.3 1524.2,903.3 1489.6,923.3 1489.6,963.3 1524.2,983.3 	"/>
	<polygon class="st0" points="1628.1,963.3 1628.1,923.3 1593.5,903.3 1558.8,923.3 1558.8,963.3 1593.5,983.3 	"/>
	<polygon class="st0" points="1697.4,963.3 1697.4,923.3 1662.8,903.3 1628.1,923.3 1628.1,963.3 1662.8,983.3 	"/>
	<polygon class="st0" points="1766.7,963.3 1766.7,923.3 1732.1,903.3 1697.4,923.3 1697.4,963.3 1732.1,983.3 	"/>
	<polygon class="st0" points="1836,963.3 1836,923.3 1801.3,903.3 1766.7,923.3 1766.7,963.3 1801.3,983.3 	"/>
	<polygon class="st0" points="1905.3,963.3 1905.3,923.3 1870.6,903.3 1836,923.3 1836,963.3 1870.6,983.3 	"/>
	<polygon class="st0" points="1974.5,963.3 1974.5,923.3 1939.9,903.3 1905.3,923.3 1905.3,963.3 1939.9,983.3 	"/>
</g>
<g>
	<polygon class="st0" points="69.3,1023.3 69.3,983.3 34.6,963.3 0,983.3 0,1023.3 34.6,1043.3 	"/>
	<polygon class="st0" points="138.6,1023.3 138.6,983.3 103.9,963.3 69.3,983.3 69.3,1023.3 103.9,1043.3 	"/>
	<polygon class="st0" points="207.8,1023.3 207.8,983.3 173.2,963.3 138.6,983.3 138.6,1023.3 173.2,1043.3 	"/>
	<polygon class="st0" points="277.1,1023.3 277.1,983.3 242.5,963.3 207.8,983.3 207.8,1023.3 242.5,1043.3 	"/>
	<polygon class="st0" points="346.4,1023.3 346.4,983.3 311.8,963.3 277.1,983.3 277.1,1023.3 311.8,1043.3 	"/>
	<polygon class="st0" points="415.7,1023.3 415.7,983.3 381.1,963.3 346.4,983.3 346.4,1023.3 381.1,1043.3 	"/>
	<polygon class="st0" points="485,1023.3 485,983.3 450.3,963.3 415.7,983.3 415.7,1023.3 450.3,1043.3 	"/>
	<polygon class="st0" points="554.3,1023.3 554.3,983.3 519.6,963.3 485,983.3 485,1023.3 519.6,1043.3 	"/>
	<polygon class="st0" points="623.5,1023.3 623.5,983.3 588.9,963.3 554.3,983.3 554.3,1023.3 588.9,1043.3 	"/>
	<polygon class="st0" points="692.8,1023.3 692.8,983.3 658.2,963.3 623.5,983.3 623.5,1023.3 658.2,1043.3 	"/>
	<polygon class="st0" points="762.1,1023.3 762.1,983.3 727.5,963.3 692.8,983.3 692.8,1023.3 727.5,1043.3 	"/>
	<polygon class="st0" points="831.4,1023.3 831.4,983.3 796.7,963.3 762.1,983.3 762.1,1023.3 796.7,1043.3 	"/>
	<polygon class="st0" points="900.7,1023.3 900.7,983.3 866,963.3 831.4,983.3 831.4,1023.3 866,1043.3 	"/>
	<polygon class="st0" points="969.9,1023.3 969.9,983.3 935.3,963.3 900.7,983.3 900.7,1023.3 935.3,1043.3 	"/>
	<polygon class="st0" points="1039.2,1023.3 1039.2,983.3 1004.6,963.3 969.9,983.3 969.9,1023.3 1004.6,1043.3 	"/>
	<polygon class="st0" points="1108.5,1023.3 1108.5,983.3 1073.9,963.3 1039.2,983.3 1039.2,1023.3 1073.9,1043.3 	"/>
	<polygon class="st0" points="1177.8,1023.3 1177.8,983.3 1143.2,963.3 1108.5,983.3 1108.5,1023.3 1143.2,1043.3 	"/>
	<polygon class="st0" points="1247.1,1023.3 1247.1,983.3 1212.4,963.3 1177.8,983.3 1177.8,1023.3 1212.4,1043.3 	"/>
	<polygon class="st0" points="1316.4,1023.3 1316.4,983.3 1281.7,963.3 1247.1,983.3 1247.1,1023.3 1281.7,1043.3 	"/>
	<polygon class="st0" points="1385.6,1023.3 1385.6,983.3 1351,963.3 1316.4,983.3 1316.4,1023.3 1351,1043.3 	"/>
	<polygon class="st0" points="1454.9,1023.3 1454.9,983.3 1420.3,963.3 1385.6,983.3 1385.6,1023.3 1420.3,1043.3 	"/>
	<polygon class="st0" points="1524.2,1023.3 1524.2,983.3 1489.6,963.3 1454.9,983.3 1454.9,1023.3 1489.6,1043.3 	"/>
	<polygon class="st0" points="1593.5,1023.3 1593.5,983.3 1558.8,963.3 1524.2,983.3 1524.2,1023.3 1558.8,1043.3 	"/>
	<polygon class="st0" points="1662.8,1023.3 1662.8,983.3 1628.1,963.3 1593.5,983.3 1593.5,1023.3 1628.1,1043.3 	"/>
	<polygon class="st0" points="1732.1,1023.3 1732.1,983.3 1697.4,963.3 1662.8,983.3 1662.8,1023.3 1697.4,1043.3 	"/>
	<polygon class="st0" points="1801.3,1023.3 1801.3,983.3 1766.7,963.3 1732.1,983.3 1732.1,1023.3 1766.7,1043.3 	"/>
	<polygon class="st0" points="1870.6,1023.3 1870.6,983.3 1836,963.3 1801.3,983.3 1801.3,1023.3 1836,1043.3 	"/>
	<polygon class="st0" points="1939.9,1023.3 1939.9,983.3 1905.3,963.3 1870.6,983.3 1870.6,1023.3 1905.3,1043.3 	"/>
</g>
<g>
	<polygon class="st0" points="103.9,1083.6 103.9,1043.6 69.3,1023.6 34.6,1043.6 34.6,1083.6 69.3,1103.6 	"/>
	<polygon class="st0" points="173.2,1083.6 173.2,1043.6 138.6,1023.6 103.9,1043.6 103.9,1083.6 138.6,1103.6 	"/>
	<polygon class="st0" points="242.5,1083.6 242.5,1043.6 207.8,1023.6 173.2,1043.6 173.2,1083.6 207.8,1103.6 	"/>
	<polygon class="st0" points="311.8,1083.6 311.8,1043.6 277.1,1023.6 242.5,1043.6 242.5,1083.6 277.1,1103.6 	"/>
	<polygon class="st0" points="381.1,1083.6 381.1,1043.6 346.4,1023.6 311.8,1043.6 311.8,1083.6 346.4,1103.6 	"/>
	<polygon class="st0" points="450.3,1083.6 450.3,1043.6 415.7,1023.6 381.1,1043.6 381.1,1083.6 415.7,1103.6 	"/>
	<polygon class="st0" points="519.6,1083.6 519.6,1043.6 485,1023.6 450.3,1043.6 450.3,1083.6 485,1103.6 	"/>
	<polygon class="st0" points="588.9,1083.6 588.9,1043.6 554.3,1023.6 519.6,1043.6 519.6,1083.6 554.3,1103.6 	"/>
	<polygon class="st0" points="658.2,1083.6 658.2,1043.6 623.5,1023.6 588.9,1043.6 588.9,1083.6 623.5,1103.6 	"/>
	<polygon class="st0" points="727.5,1083.6 727.5,1043.6 692.8,1023.6 658.2,1043.6 658.2,1083.6 692.8,1103.6 	"/>
	<polygon class="st0" points="796.7,1083.6 796.7,1043.6 762.1,1023.6 727.5,1043.6 727.5,1083.6 762.1,1103.6 	"/>
	<polygon class="st0" points="866,1083.6 866,1043.6 831.4,1023.6 796.7,1043.6 796.7,1083.6 831.4,1103.6 	"/>
	<polygon class="st0" points="935.3,1083.6 935.3,1043.6 900.7,1023.6 866,1043.6 866,1083.6 900.7,1103.6 	"/>
	<polygon class="st0" points="1004.6,1083.6 1004.6,1043.6 969.9,1023.6 935.3,1043.6 935.3,1083.6 969.9,1103.6 	"/>
	<polygon class="st0" points="1073.9,1083.6 1073.9,1043.6 1039.2,1023.6 1004.6,1043.6 1004.6,1083.6 1039.2,1103.6 	"/>
	<polygon class="st0" points="1143.2,1083.6 1143.2,1043.6 1108.5,1023.6 1073.9,1043.6 1073.9,1083.6 1108.5,1103.6 	"/>
	<polygon class="st0" points="1212.4,1083.6 1212.4,1043.6 1177.8,1023.6 1143.2,1043.6 1143.2,1083.6 1177.8,1103.6 	"/>
	<polygon class="st0" points="1281.7,1083.6 1281.7,1043.6 1247.1,1023.6 1212.4,1043.6 1212.4,1083.6 1247.1,1103.6 	"/>
	<polygon class="st0" points="1351,1083.6 1351,1043.6 1316.4,1023.6 1281.7,1043.6 1281.7,1083.6 1316.4,1103.6 	"/>
	<polygon class="st0" points="1420.3,1083.6 1420.3,1043.6 1385.6,1023.6 1351,1043.6 1351,1083.6 1385.6,1103.6 	"/>
	<polygon class="st0" points="1489.6,1083.6 1489.6,1043.6 1454.9,1023.6 1420.3,1043.6 1420.3,1083.6 1454.9,1103.6 	"/>
	<polygon class="st0" points="1558.8,1083.6 1558.8,1043.6 1524.2,1023.6 1489.6,1043.6 1489.6,1083.6 1524.2,1103.6 	"/>
	<polygon class="st0" points="1628.1,1083.6 1628.1,1043.6 1593.5,1023.6 1558.8,1043.6 1558.8,1083.6 1593.5,1103.6 	"/>
	<polygon class="st0" points="1697.4,1083.6 1697.4,1043.6 1662.8,1023.6 1628.1,1043.6 1628.1,1083.6 1662.8,1103.6 	"/>
	<polygon class="st0" points="1766.7,1083.6 1766.7,1043.6 1732.1,1023.6 1697.4,1043.6 1697.4,1083.6 1732.1,1103.6 	"/>
	<polygon class="st0" points="1836,1083.6 1836,1043.6 1801.3,1023.6 1766.7,1043.6 1766.7,1083.6 1801.3,1103.6 	"/>
	<polygon class="st0" points="1905.3,1083.6 1905.3,1043.6 1870.6,1023.6 1836,1043.6 1836,1083.6 1870.6,1103.6 	"/>
	<polygon class="st0" points="1974.5,1083.6 1974.5,1043.6 1939.9,1023.6 1905.3,1043.6 1905.3,1083.6 1939.9,1103.6 	"/>
</g>
</svg>
